<?xml version="1.0" encoding="UTF-8" standalone="no"?>
<svg
   xmlns:dc="http://purl.org/dc/elements/1.1/"
   xmlns:cc="http://creativecommons.org/ns#"
   xmlns:rdf="http://www.w3.org/1999/02/22-rdf-syntax-ns#"
   xmlns:svg="http://www.w3.org/2000/svg"
   xmlns="http://www.w3.org/2000/svg"
   viewBox="0 0 2829.3333 2829.3333"
   height="700.0000"
   width="700.0000"
   xml:space="preserve"
   id="svg2"
   version="1.1"><metadata
     id="metadata8"><rdf:RDF><cc:Work
         rdf:about=""><dc:format>image/svg+xml</dc:format><dc:type
           rdf:resource="http://purl.org/dc/dcmitype/StillImage" /></cc:Work></rdf:RDF></metadata><defs
     id="defs6" /><g
     transform="matrix(1.3333333,0,0,-1.3333333,0,2829.3333)"
     id="g10"><g
       transform="scale(0.1)"
       id="g12"><g
         transform="scale(1.11177)"
         id="g14"><path
           id="path16"
           style="fill:#593224;fill-opacity:1;fill-rule:nonzero;stroke:none"
           d="m 6181.44,15950.5 c -303.86,-372.1 -255.28,-944.3 -156.01,-1378.7 93.05,-407 197.54,-881.9 69.78,-1291.2 961.7,381.9 81.8,1534.2 389.08,2292.6 48.15,118.8 278.31,435.5 427.26,367.3 75.98,-34.8 288.71,-268.6 319.35,-32.6 16.3,125.6 -183.33,258.4 -279.6,293.6 -269.48,98.5 -595.73,-37.8 -769.86,-251" /></g><path
         id="path18"
         style="fill:#e68368;fill-opacity:1;fill-rule:nonzero;stroke:none"
         d="m 8869.07,15375.9 c 266.07,24.3 501.62,-171.5 525.98,-437.6 24.4,-266.1 -77.12,-963.1 -291.15,-803.1 -420.72,314.5 -632.85,506.3 -657.29,772.3 -24.43,266.2 156.33,444 422.46,468.4" /><path
         id="path20"
         style="fill:#e68368;fill-opacity:1;fill-rule:nonzero;stroke:none"
         d="m 9232.41,15119.7 -452.4,-183.1 -52.13,-498.5 c 0,0 1095.39,-1171.5 1437.62,-1322.7 364.6,-161 249.5,154.2 218,285.4 0,0 -879.11,1567 -1151.09,1718.9" /><path
         id="path22"
         style="fill:#e68368;fill-opacity:1;fill-rule:nonzero;stroke:none"
         d="m 10373,13087.3 c 0,0 834.8,484.4 1360,1000.8 0,0 9.7,158.3 -141,176.7 -150.6,18.4 -1469,-547 -1551.1,-667.6 -82.02,-120.4 332.1,-509.9 332.1,-509.9" /><path
         id="path24"
         style="fill:#e68368;fill-opacity:1;fill-rule:nonzero;stroke:none"
         d="m 11586.2,14271.2 100.9,268.7 39.6,376.3 c 173.3,-16 110.8,-212.5 110.8,-212.5 179.8,142.9 318.3,226.5 318.3,226.5 61.9,56.9 87.6,-14.3 87.6,-14.3 -43.8,-112.3 -231.5,-315.9 -231.5,-315.9 121.5,99.6 299.4,293.5 299.4,293.5 59.2,37.6 70,-34 70,-34 -17.9,-165.5 -280,-336.6 -280,-336.6 100.9,61.5 282.2,245.3 282.2,245.3 50.3,4.6 45.1,-23.2 45.1,-23.2 5.9,-133.4 -246.7,-297.3 -246.7,-297.3 l 93,63.8 c 119.5,98.8 122.7,-1.7 122.7,-1.7 l -54.5,-61.4 c -169.3,-184.4 -370.3,-243.1 -370.3,-243.1 l -245.6,-110.8 -141,176.7" /><path
         id="path26"
         style="fill:#f69575;fill-opacity:1;fill-rule:nonzero;stroke:none"
         d="m 8039.83,3659.3 c 0,0 -14.8,-326.5 55.61,-437.8 70.55,-111.2 398.36,-343.4 398.36,-343.4 l 193.22,-90.8 c 0,0 109.48,-143.5 -308.18,-131.8 -417.78,11.9 -996.37,538.3 -996.37,538.3 l 341.42,572.2 315.94,-106.7" /><path
         id="path28"
         style="fill:#ec326f;fill-opacity:1;fill-rule:nonzero;stroke:none"
         d="m 7841.6,3415.6 c -68.26,-27.8 -105.54,73.5 -105.54,73.5 -17.54,105.5 -109.4,160.6 -109.4,160.6 l -307.07,-456.5 219.06,-177.8 c 686.61,-549.9 1148.53,-338.6 1148.53,-338.6 76.48,107 8.09,167.6 8.09,167.6 -394.31,134 -603.83,502.2 -603.83,502.2 0,0 -22,41.6 -13.21,144.8 0,0 12.45,25.6 -38.84,37.6 l -167.4,9.6 c 0,0 -45.16,3.2 -33.81,-50.1 l 3.42,-72.9" /><path
         id="path30"
         style="fill:#30294b;fill-opacity:1;fill-rule:nonzero;stroke:none"
         d="m 7682.83,3392.3 c 52.92,-42.1 133.93,-105.4 208.15,-96 -30.98,42 -44.29,90.1 -50.45,140.3 l 1.07,-21 c -68.26,-27.8 -105.54,73.5 -105.54,73.5 -17.54,105.5 -109.4,160.6 -109.4,160.6 l -79.74,-118.6 c 35.58,-53.6 87.96,-100.6 135.91,-138.8" /><path
         id="path32"
         style="fill:#ffffff;fill-opacity:1;fill-rule:nonzero;stroke:none"
         d="m 8553.47,2906.2 c -20.67,-28.8 -63.88,-67.4 -104.87,-76.2 32.76,-24.4 94.56,-27.4 127.82,-30.3 51.81,-4.5 84.08,16.6 116.71,45.5 -49.59,17 -96.09,37.8 -139.66,61" /><path
         id="path34"
         style="fill:#f49eac;fill-opacity:1;fill-rule:nonzero;stroke:none"
         d="m 8371.66,2679.9 c -178.29,8.7 -342.83,87.4 -500.84,165.1 -139.37,68.5 -272.84,164.6 -343.42,307.4 -41.92,84.6 -56.36,174.4 -56.57,265.7 l -151.24,-224.9 219.06,-177.8 c 686.61,-549.9 1148.53,-338.6 1148.53,-338.6 10.92,15.2 18.62,29.3 24.27,42.6 -98.64,-58.2 -227.53,-45 -339.79,-39.5" /><path
         id="path36"
         style="fill:#30294b;fill-opacity:1;fill-rule:nonzero;stroke:none"
         d="m 7841.6,3415.6 c -3.03,-1.3 -5.76,-2 -8.51,-2.6 13.61,-88.7 69.28,-167 124.81,-236.2 60.87,-75.8 138.06,-141.8 205.37,-196.5 65.92,-53.5 120.93,-117.7 210.01,-133 71.61,-12.4 125.95,15.5 162.09,68.5 -290.6,162 -443.93,430.8 -443.93,430.8 0,0 -22,41.6 -13.21,144.8 0,0 12.45,25.6 -38.84,37.6 l -167.4,9.6 c 0,0 -45.16,3.2 -33.81,-50.1 l 3.42,-72.9" /><path
         id="path38"
         style="fill:#2f1737;fill-opacity:1;fill-rule:nonzero;stroke:none"
         d="m 7319.59,3193.2 219.06,-177.8 c 686.61,-549.9 1148.53,-338.6 1148.53,-338.6 0,0 -25.36,-84.2 -92.18,-105.6 0,0 -547.05,-104.3 -1117.53,377 0,0 -119,81.8 -204.14,171.4 0,0 14.6,77.7 46.26,73.6" /><path
         id="path40"
         style="fill:none;stroke:#ffffff;stroke-width:63.90000153;stroke-linecap:round;stroke-linejoin:round;stroke-miterlimit:10;stroke-dasharray:none;stroke-opacity:1"
         d="m 8161.39,3244.8 c 0,0 -99.79,31.8 -204.71,-96.1" /><path
         id="path42"
         style="fill:none;stroke:#ffffff;stroke-width:63.90000153;stroke-linecap:round;stroke-linejoin:round;stroke-miterlimit:10;stroke-dasharray:none;stroke-opacity:1"
         d="m 8234.11,3170.2 c 0,0 -92.96,13.4 -174.33,-103" /><path
         id="path44"
         style="fill:none;stroke:#ffffff;stroke-width:63.90000153;stroke-linecap:round;stroke-linejoin:round;stroke-miterlimit:10;stroke-dasharray:none;stroke-opacity:1"
         d="m 8293.49,3098 c 0,0 -85.81,5.8 -167.16,-110.6" /><path
         id="path46"
         style="fill:none;stroke:#ffffff;stroke-width:63.90000153;stroke-linecap:round;stroke-linejoin:round;stroke-miterlimit:10;stroke-dasharray:none;stroke-opacity:1"
         d="m 8374.2,3021.8 c 0,0 -82.07,25.6 -163.3,-90.7" /><path
         id="path48"
         style="fill:none;stroke:#ffffff;stroke-width:63.90000153;stroke-linecap:round;stroke-linejoin:round;stroke-miterlimit:10;stroke-dasharray:none;stroke-opacity:1"
         d="m 8477.19,2953.6 c 0,0 -82.12,25.8 -163.37,-90.7" /><path
         id="path50"
         style="fill:#f69575;fill-opacity:1;fill-rule:nonzero;stroke:none"
         d="m 7231.41,4597.2 c 0,0 -157,-286.7 -142.75,-417.6 14.4,-130.9 206.55,-483.7 206.55,-483.7 l 133.57,-166.5 c 0,0 35.1,-177.2 -334.75,17.3 -369.93,194.4 -657.78,921.8 -657.78,921.8 l 558.39,363.5 236.77,-234.8" /><path
         id="path52"
         style="fill:#ec326f;fill-opacity:1;fill-rule:nonzero;stroke:none"
         d="m 6946.12,4465.6 c -73.51,5.1 -62.4,112.5 -62.4,112.5 30.69,102.4 -27.55,192.3 -27.55,192.3 l -476.64,-274.7 118.44,-256.1 c 374.53,-796 882.3,-809.5 882.3,-809.5 115.75,62.3 81.03,146.9 81.03,146.9 -295.11,293.8 -321.18,716.7 -321.18,716.7 0,0 -1.44,47.1 51.87,135.8 0,0 22.46,17.5 -18.34,50.9 l -146.08,82.3 c 0,0 -39.14,22.7 -52.41,-30.1 l -29.04,-67" /><path
         id="path54"
         style="fill:#30294b;fill-opacity:1;fill-rule:nonzero;stroke:none"
         d="m 6793.33,4514.6 c 28.99,-61.1 73.87,-153.6 144.67,-177.8 -9.35,51.3 -0.11,100.4 16.43,148.1 l -8.31,-19.3 c -73.51,5.1 -62.4,112.5 -62.4,112.5 30.69,102.4 -27.55,192.3 -27.55,192.3 l -123.77,-71.3 c 8.33,-63.9 34.66,-129.2 60.93,-184.5" /><path
         id="path56"
         style="fill:#ffffff;fill-opacity:1;fill-rule:nonzero;stroke:none"
         d="m 7361.14,3694.9 c -31.22,-16.8 -86.99,-32.4 -127.69,-22.3 18.7,-36.3 72.86,-66.2 101.44,-83.5 44.54,-26.8 82.82,-22 124.83,-10.5 -37.04,37.2 -69.68,76.2 -98.58,116.3" /><path
         id="path58"
         style="fill:#f49eac;fill-opacity:1;fill-rule:nonzero;stroke:none"
         d="m 7098.3,3571.7 c -156.25,86.3 -269.38,229.3 -377.06,368.7 -95.01,122.8 -172.53,267.9 -173.06,427.2 -0.42,94.3 26.13,181.3 66.15,263.4 l -234.8,-135.3 118.44,-256.1 c 374.53,-796 882.3,-809.5 882.3,-809.5 16.48,8.8 29.59,18 40.55,27.5 -114.23,-8.8 -224.16,59.7 -322.52,114.1" /><path
         id="path60"
         style="fill:#30294b;fill-opacity:1;fill-rule:nonzero;stroke:none"
         d="m 6946.12,4465.6 c -3.25,0.2 -6,0.8 -8.75,1.4 -26.86,-85.7 -11.32,-180.5 8.11,-267 21.3,-94.9 61.54,-188.1 97.94,-266.8 35.63,-77.1 56.74,-159 130.02,-211.9 58.85,-42.6 119.93,-41.5 175.68,-9.9 -189.65,273.4 -209,582.3 -209,582.3 0,0 -1.44,47.1 51.87,135.8 0,0 22.46,17.5 -18.34,50.9 l -146.08,82.3 c 0,0 -39.14,22.7 -52.41,-30.1 l -29.04,-67" /><path
         id="path62"
         style="fill:#2f1737;fill-opacity:1;fill-rule:nonzero;stroke:none"
         d="m 6379.53,4495.7 118.44,-256.1 c 374.53,-796 882.3,-809.5 882.3,-809.5 0,0 -59.86,-64.5 -129.28,-54.4 0,0 -537.13,147.2 -837.55,830.4 0,0 -70.85,125.8 -107.86,243.8 0,0 47.35,63.4 73.95,45.8" /><path
         id="path64"
         style="fill:none;stroke:#ffffff;stroke-width:63.90000153;stroke-linecap:round;stroke-linejoin:round;stroke-miterlimit:10;stroke-dasharray:none;stroke-opacity:1"
         d="m 7158.12,4171.5 c 0,0 -75.6,72.5 -226.14,3.8" /><path
         id="path66"
         style="fill:none;stroke:#ffffff;stroke-width:63.90000153;stroke-linecap:round;stroke-linejoin:round;stroke-miterlimit:10;stroke-dasharray:none;stroke-opacity:1"
         d="m 7190.57,4072.5 c 0,0 -77.55,53 -201.85,-15.8" /><path
         id="path68"
         style="fill:none;stroke:#ffffff;stroke-width:63.90000153;stroke-linecap:round;stroke-linejoin:round;stroke-miterlimit:10;stroke-dasharray:none;stroke-opacity:1"
         d="m 7212.12,3981.5 c 0,0 -74.52,43 -198.77,-25.7" /><path
         id="path70"
         style="fill:none;stroke:#ffffff;stroke-width:63.90000153;stroke-linecap:round;stroke-linejoin:round;stroke-miterlimit:10;stroke-dasharray:none;stroke-opacity:1"
         d="m 7251.05,3877.6 c 0,0 -62.41,59.1 -186.54,-9.6" /><path
         id="path72"
         style="fill:none;stroke:#ffffff;stroke-width:63.90000153;stroke-linecap:round;stroke-linejoin:round;stroke-miterlimit:10;stroke-dasharray:none;stroke-opacity:1"
         d="m 7313.49,3771 c 0,0 -62.36,59.3 -186.56,-9.5" /><path
         id="path74"
         style="fill:#17324c;fill-opacity:1;fill-rule:nonzero;stroke:none"
         d="m 9277.64,7783.1 638.74,-405.7 c 0,0 -2571.36,-2704.9 -2698.5,-2806.5 0,0 -318.64,204.5 -259.14,273.2 143.37,166.1 881.43,1544.6 1081.31,1825.1 321.06,450.4 547.78,717.1 1237.59,1113.9" /><path
         id="path76"
         style="fill:#f69575;fill-opacity:1;fill-rule:nonzero;stroke:none"
         d="m 9115.7,11611.1 c 0,0 237.73,-671.6 352.13,-1099 202.33,-756.1 389.6,-2725 389.6,-2725 0,0 -620.55,-388.9 -720.33,-231.7 -481.8,758.3 -518.75,539.6 -1287.67,3162.9 l 1266.27,892.8" /><path
         id="path78"
         style="fill:#17324c;fill-opacity:1;fill-rule:nonzero;stroke:none"
         d="m 7890.88,10635.9 c 0,0 371.74,-2000.9 1222.89,-3094 0,0 262.82,-676.5 802.61,-164.5 0,0 -126.1,3357.8 -744.41,4338.1 0,0 -1587.23,-22.5 -1281.09,-1079.6" /><path
         id="path80"
         style="fill:#e88767;fill-opacity:1;fill-rule:nonzero;stroke:none"
         d="m 8491.25,12908.5 c 60.45,14.9 321,-99.2 321,-99.2 0,0 379.51,-992.5 402.79,-1145.6 23.39,-153 -984.73,-1017.4 -2196.39,-638.8 0,0 456.87,1460.7 468.06,1813.9 11.11,353.4 1004.54,69.7 1004.54,69.7" /><path
         id="path82"
         style="fill:#1f4266;fill-opacity:1;fill-rule:nonzero;stroke:none"
         d="m 8812.25,12809.3 c 0,0 360.1,-893.9 402.79,-1145.6 151.35,-891.1 -1038.52,-1344.5 -2250.18,-965.9 0,0 -155.21,1228.4 521.85,2141 0,0 205.76,-165 1325.54,-29.5" /><path
         id="path84"
         style="fill:#1f4266;fill-opacity:1;fill-rule:nonzero;stroke:none"
         d="m 7862.58,10086.7 -885.26,415.2 c 0,0 310.94,-2697.6 467.7,-3450.9 0,0 487.06,-102.7 629.03,5.2 377.45,1068.9 490.66,3345 490.66,3345 l -702.13,-314.5" /><path
         id="path86"
         style="fill:#1f4266;fill-opacity:1;fill-rule:nonzero;stroke:none"
         d="m 7264.07,11315.3 c 0,0 -402.95,-144.5 -269.62,-899.7 130.25,-737.6 1500.95,-721.2 1580.02,48.5 85.14,828.3 -607.4,1220.3 -1310.4,851.2" /><path
         id="path88"
         style="fill:#1f4266;fill-opacity:1;fill-rule:nonzero;stroke:none"
         d="m 7393.77,7331.4 712.18,-162.5 c 0,0 -27.02,-3368.6 -47.87,-3530 0,0 -371.32,-74.3 -376.26,16.4 -12.23,219 -356.35,1571 -402.83,1912.3 -79.93,586.7 -265.23,971.7 114.78,1763.8" /><g
         transform="scale(1.01442)"
         id="g90"><path
           id="path92"
           style="fill:#f69575;fill-opacity:1;fill-rule:nonzero;stroke:none"
           d="m 7478.88,15129.6 811.59,51.6 c -44.41,115.9 -140.31,416.9 -35.28,632.6 l -854.2,486.2 c 0,0 203.26,-894.2 77.89,-1170.4" /></g><g
         transform="scale(1.01442)"
         id="g94"><path
           id="path96"
           style="fill:#e27462;fill-opacity:1;fill-rule:nonzero;stroke:none"
           d="m 8209.67,15532.4 c -8.09,90.3 0.61,189.1 45.52,281.4 l -854.2,486.2 c 0,0 82.84,-364.4 110.25,-699.9 302.06,-75.3 426.23,-104 698.43,-67.7" /></g><path
         id="path98"
         style="fill:#f69575;fill-opacity:1;fill-rule:nonzero;stroke:none"
         d="M 7025.68,15240.7 C 6666.61,15036 6900.3,14613.6 6900.3,14613.6 l 616.8,-1790.8 c 0,0 480.1,-161.5 1295.15,-13.5 103.64,170.5 294.53,869.2 339.84,1396.3 37.32,434.1 211.23,870.6 -22.81,1096.4 -89.76,86.6 -734.55,137.7 -738.78,152.6 l -769.05,-49 -595.77,-164.9" /><g
         transform="scale(1.08867)"
         id="g100"><path
           id="path102"
           style="fill:#f69575;fill-opacity:1;fill-rule:nonzero;stroke:none"
           d="m 7952.95,15663 c 2.08,-16.5 3.87,-33 5.46,-50 7.29,-76.7 9.05,-156.9 7.01,-239.5 -0.75,-31.2 -2.12,-62.5 -4.06,-94.4 -0.87,-15.1 -1.91,-30.4 -2.92,-45.7 -19.16,-269.6 -75.39,-469.4 -238.07,-607.9 -76.81,-65.3 -455.78,72.4 -592.23,199.2 -211.06,196.2 -311.61,496.8 -332.34,971 -5.47,126.7 60.86,233.8 141.75,313.7 93.47,92.3 139.92,129.5 272.43,151.8 231.24,38.8 477.1,8.1 622.27,-228.7 65.91,-107.6 102.95,-232.5 120.7,-369.5" /></g><g
         transform="scale(1.11454)"
         id="g104"><path
           id="path106"
           style="fill:#724230;fill-opacity:1;fill-rule:nonzero;stroke:none"
           d="m 6933.19,14871.5 c 6.74,-88 -133.52,49.4 -134.66,-18.5 0,0 -5.83,-61.7 11.5,-292.8 l -0.45,-130.2 c 0,0 -407.84,260.7 -488.52,931.7 0,0 2.95,446.6 446.1,583.1 0,0 1046.01,355.2 1006.02,-712.2 0,0 23.9,486.5 -729,389.4 0,0 -41.05,-34.4 -133.14,30.1 0,0 65.1,-27.5 71.73,-76.3 0,0 -87.58,-207.9 -49.58,-704.3" /></g><g
         transform="scale(1.02671)"
         id="g108"><path
           id="path110"
           style="fill:#f7906e;fill-opacity:1;fill-rule:nonzero;stroke:none"
           d="m 7424.69,15975.6 c -18.73,-16.4 -43.34,-26.6 -74.86,-28.1 -85.23,-4.2 -161.04,71 -169.19,167.8 -8.08,96.7 54.16,178.5 139.35,182.7 40.39,2 78.62,-13.9 108.58,-41.4 43.61,-40.2 49.91,-119 43.68,-174 -4.91,-43.9 -19.62,-82.4 -47.56,-107" /></g><g
         transform="scale(1.02423)"
         id="g112"><path
           id="path114"
           style="fill:#eb7963;fill-opacity:1;fill-rule:nonzero;stroke:none"
           d="m 7377.94,16249.3 c -8.28,50.7 -108.36,-4.6 -90.92,-32.4 10.13,-15.9 28.97,-26.9 43.9,-37.6 20.45,-14.6 30.94,-28.5 35.26,-53.7 0.54,-2.9 1.71,-11.7 -1.16,-14 -12.78,-10.1 -59.71,36.9 -69.92,46.8 -20.2,19.5 -25.02,54.6 -17.59,80.7 7.9,27.8 24.96,41.8 54.14,41.9 23.27,0.1 46.94,0 47.43,-28.9 -0.01,-0.6 -0.73,-5.4 -1.14,-2.8 v 0" /></g><g
         transform="scale(1.0183)"
         id="g116"><path
           id="path118"
           style="fill:#eb7963;fill-opacity:1;fill-rule:nonzero;stroke:none"
           d="m 7391.03,16288.5 c 10.17,11.5 21.05,3.2 32.57,-4.1 10.69,-6.9 17.1,-17.1 20.49,-29 7.68,-26.3 6.33,-62.2 -7.44,-86.5 -11.18,-19.5 -31.21,-32.3 -53.82,-33.1 -31.3,-1.2 -42.37,25.9 -45.21,52.2 -0.78,7 -2.42,23.7 4.18,28.6 7.25,5.2 13.25,-6.1 18.58,-10.7 7.4,-6.2 17.8,-8.1 27.11,-8.3 17.88,-0.4 34.74,9.7 45.13,23.6 1.83,2.5 3.46,5.5 4.24,8.4 1.06,-17.3 0.38,-21.2 -2.02,-11.8 -1.63,4.3 -3.93,8.2 -6.67,11.8 -7.99,11.6 -20.7,19 -29.54,29.8 -4.2,5.1 -12.69,23.2 -7.6,29.1 v 0" /></g><g
         transform="scale(1.03534)"
         id="g120"><path
           id="path122"
           style="fill:#351f17;fill-opacity:1;fill-rule:nonzero;stroke:none"
           d="m 7819.27,16246.1 c 1.94,-30.3 -13.2,-56 -33.83,-57.3 -20.58,-1.3 -38.83,22.2 -40.76,52.6 -1.93,30.3 13.19,56 33.77,57.3 20.63,1.3 38.89,-22.3 40.82,-52.6" /></g><g
         transform="scale(1.03705)"
         id="g124"><path
           id="path126"
           style="fill:#351f17;fill-opacity:1;fill-rule:nonzero;stroke:none"
           d="m 8228.07,16246.2 c 1.93,-30.3 -13.15,-55.9 -33.75,-57.2 -20.55,-1.3 -38.76,22.2 -40.7,52.5 -1.92,30.2 13.17,55.9 33.72,57.2 20.6,1.3 38.8,-22.2 40.73,-52.5" /></g><g
         transform="scale(1.04534)"
         id="g128"><path
           id="path130"
           style="fill:#724230;fill-opacity:1;fill-rule:nonzero;stroke:none"
           d="m 7578.99,16156.8 c 68.81,60.9 230.14,31.3 230.14,31.3 0,0 16.27,0.6 13.51,31.3 0,0 4.73,28.5 -19.96,33.4 0,0 -232.8,47.2 -223.69,-96" /></g><g
         transform="scale(1.04805)"
         id="g132"><path
           id="path134"
           style="fill:#724230;fill-opacity:1;fill-rule:nonzero;stroke:none"
           d="m 8223.39,16157.2 c -75.78,51.6 -231.65,1.9 -231.65,1.9 0,0 -16.17,-1.5 -17.32,29.2 0,0 -8.28,27.6 15.52,35.6 0,0 224.36,76.1 233.45,-66.7" /></g><g
         transform="scale(1.02377)"
         id="g136"><path
           id="path138"
           style="fill:#eb7963;fill-opacity:1;fill-rule:nonzero;stroke:none"
           d="m 8084.54,16150.1 c 157.56,21.5 163.57,63.6 163.57,63.6 l -46.55,86.3 c 0,0 -17.37,-90.4 -117.02,-149.9" /></g><g
         transform="scale(1.00942)"
         id="g140"><path
           id="path142"
           style="fill:#9d3339;fill-opacity:1;fill-rule:nonzero;stroke:none"
           d="m 8408.35,16300 -303.32,-19.3 c -15.92,-1.2 -22.86,-13.7 -15.22,-27.9 0,0 78.37,-146.2 176.66,-139.6 98.37,6.6 156.48,162 156.48,162 5.03,13.5 -1.72,23.5 -14.6,24.8" /></g><g
         transform="scale(1.00631)"
         id="g144"><path
           id="path146"
           style="fill:#d54651;fill-opacity:1;fill-rule:nonzero;stroke:none"
           d="m 8173.4,16223.1 c 31.29,-33.1 72.76,-63.2 118.62,-60.1 46.16,3.1 83.34,38.8 109.96,76 -63.28,61 -170.04,52.2 -228.58,-15.9" /></g><g
         transform="scale(1.00942)"
         id="g148"><path
           id="path150"
           style="fill:#ffffff;fill-opacity:1;fill-rule:nonzero;stroke:none"
           d="m 8411.49,16299.1 c -1.09,0.2 -1.95,0.8 -3.14,0.9 l -303.32,-19.3 c -3.12,-0.2 -5.58,-1.2 -8,-2.3 10.03,-16.8 20.03,-33.6 30.36,-50.2 47.08,-5.8 154.31,-13 263.08,17.2 5.98,18.3 13.04,36.1 21.02,53.7" /></g><path
         id="path152"
         style="fill:#1b2231;fill-opacity:1;fill-rule:nonzero;stroke:none"
         d="m 7094.09,14050.9 388.17,-1216.3 c 0,0 694.89,-258 1329.99,-25.3 187.38,68.6 294.53,869.2 339.84,1396.3 -113.86,631.5 -462.7,1212.3 -462.7,1212.3 l -161.71,14.5 c 364.59,-526 -120.57,-595.8 -120.57,-595.8 -624.3,-57.5 -810.86,567.4 -810.86,567.4 l -171.95,-52.9 c 0,0 480.66,-923.6 -330.21,-1300.2" /><path
         id="path154"
         style="fill:#1b2231;fill-opacity:1;fill-rule:nonzero;stroke:none"
         d="m 8882.18,15043.3 c 0,0 353.48,-429.4 424.87,-657.5 46.91,-150 -196.87,-510.1 -407.46,-584.2 -115.08,-40.5 -196.75,1199.8 -17.41,1241.7" /><path
         id="path156"
         style="fill:#f69575;fill-opacity:1;fill-rule:nonzero;stroke:none"
         d="m 7331.65,14377.7 c -218.78,-135.3 -505.91,-67.7 -641.34,151.1 -135.38,218.8 -67.8,505.9 151.03,641.4 218.84,135.4 506.01,67.8 641.41,-151 135.43,-218.9 67.8,-506.1 -151.1,-641.5" /><path
         id="path158"
         style="fill:#f69575;fill-opacity:1;fill-rule:nonzero;stroke:none"
         d="m 7009.49,12793.7 c 196.27,-1110.5 405.55,-1280.8 543.2,-1916.7 0,0 -77.58,-132.8 -232.3,-47.3 -154.69,85.3 -850.45,1192.9 -781.62,1888.8 16.68,168.9 470.72,75.2 470.72,75.2" /><path
         id="path160"
         style="fill:#f69575;fill-opacity:1;fill-rule:nonzero;stroke:none"
         d="m 7524.95,10928.2 267.43,-103 270.36,-132 c -35.3,-105.9 -228.37,-33.4 -228.37,-33.4 107.99,-209.1 240.42,-435.1 240.42,-435.1 44.84,-73.4 -31.76,-85.3 -31.76,-85.3 -104.33,66.5 -271.84,295.6 -271.84,295.6 76.13,-142.1 235.85,-359.4 235.85,-359.4 25.87,-67 -48.17,-63.6 -48.17,-63.6 -162.77,50.8 -282.91,348.2 -282.91,348.2 41.83,-113.7 190.77,-332.4 190.77,-332.4 -5.48,-51.5 -32.44,-40.6 -32.44,-40.6 -135.21,20.4 -249.92,307.1 -249.92,307.1 l 45.8,-106.3 c 75.48,-139.8 -26.17,-123.1 -26.17,-123.1 l -50.92,67 c -151.85,206.9 -171.05,420.5 -171.05,420.5 l -62.67,268.9 205.59,106.9" /><path
         id="path162"
         style="fill:#f69575;fill-opacity:1;fill-rule:nonzero;stroke:none"
         d="m 7394.81,14642.5 113.36,-82.7 c 0,0 -347.29,-1692.4 -631.03,-1986.2 -283.77,-293.8 -300.4,12 -338.37,144.9 -21.74,75.9 80.31,2063.1 80.31,2063.1 l 775.73,-139.1" /><g
         transform="scale(1.15431)"
         id="g164"><path
           id="path166"
           style="fill:#a8592a;fill-opacity:1;fill-rule:nonzero;stroke:none"
           d="m 11490.1,15943.5 c 44.7,123.3 166.6,251.8 293.6,288 240.6,68.5 532.4,-210.2 540.6,-446.4 5.2,-152.1 -136.8,-304 -282.9,-318.6 -211.1,-21 -650.8,202.8 -551.3,477" /></g><path
         id="path168"
         style="fill:#e68368;fill-opacity:1;fill-rule:nonzero;stroke:none"
         d="m 12353,3479.8 c -24.7,-82.1 -103.1,-322.4 -191.9,-396 -107.8,-89.1 -515.3,-215.9 -515.3,-215.9 l -224.9,-28.2 c 0,0 -157.8,-109 267.9,-234.4 425.8,-125.4 1183.4,216.1 1183.4,216.1 l -149.7,658.4 H 12353" /><path
         id="path170"
         style="fill:#183651;fill-opacity:1;fill-rule:nonzero;stroke:none"
         d="m 12469.1,3202.4 c 59.1,-51.4 131.9,37.7 131.9,37.7 54.3,100.3 166,124.1 166,124.1 l 151.7,-566.9 -282.7,-103.6 c -883.3,-316.8 -1276.2,56.5 -1276.2,56.5 -40,134.4 50,171.8 50,171.8 444.2,-1.4 783.3,297.5 783.3,297.5 0,0 36.6,34.3 63.6,141.5 0,0 -3.7,30.2 52.1,24.4 l 172.3,-48.2 c 0,0 46.7,-12.5 16.7,-62.2 l -28.7,-72.6" /><path
         id="path172"
         style="fill:#93d222;fill-opacity:1;fill-rule:nonzero;stroke:none"
         d="m 12621.2,3124 c -67.9,-24.1 -171.6,-59.8 -243.3,-24.7 45.8,31.6 75.9,75.6 99.5,124.1 l -8.3,-21 c 59.1,-51.4 131.9,37.7 131.9,37.7 54.3,100.3 166,124.1 166,124.1 l 39.5,-147.2 c -54.7,-41.9 -123.7,-71.1 -185.3,-93" /><path
         id="path174"
         style="fill:#1577a6;fill-opacity:1;fill-rule:nonzero;stroke:none"
         d="m 12293.8,2830.9 c 1.7,84.2 -48.3,152.5 -103.4,211.1 -24,25.6 -49.1,49.9 -79,68.6 -11.3,7 -24.2,14.2 -36.9,22.3 41.3,26.7 73.5,50.4 93.5,66.1 10.9,-16.2 21.8,-32.4 33.5,-48 49.8,-66.7 118.4,-173.3 203.5,-198.4 157.6,-46.6 325.3,103.6 411.7,226.1 l 16.8,-62.9 c -0.9,-3.3 -2.1,-6.6 -3.2,-9.8 -71.5,-60.8 -145.5,-118.5 -223.5,-170.8 -61.1,-41 -127.8,-75.2 -162.9,-143.3 -16.3,-31.3 -36.1,-90.3 -42.9,-124.1 -53,-15.9 -103.4,-23.8 -159.1,-31 27.2,52.9 50.6,132.2 51.9,194.1" /><path
         id="path176"
         style="fill:#1577a6;fill-opacity:1;fill-rule:nonzero;stroke:none"
         d="m 12189.6,2732.1 c -10.8,-27 -22.5,-53.7 -30.8,-81.7 -102.9,-11 -207.2,-21.2 -310,-13.9 -20.4,15.6 -40.5,34.6 -50,55.3 131.9,0.1 262,8.3 390.8,40.3" /><path
         id="path178"
         style="fill:#1577a6;fill-opacity:1;fill-rule:nonzero;stroke:none"
         d="m 12199.2,2757.6 c -133.5,-35.5 -269,-43.6 -406.1,-43.6 -0.5,9 -1.4,20.5 6.7,27.2 27.4,22.6 112.8,24.5 156.5,33.1 86,16.8 171,46.4 246,92.3 9,-25.9 12.8,-52.9 5.9,-80.2 -2.5,-9.7 -5.7,-19.3 -9,-28.8" /><path
         id="path180"
         style="fill:#b0e5ef;fill-opacity:1;fill-rule:nonzero;stroke:none"
         d="m 11574.3,2935.2 c 10.9,-36.2 41.1,-90 79.4,-113.1 -41.5,-13.3 -105,5 -139.5,13.7 -53.8,13.4 -79,45.9 -101.9,86.3 55.8,-0.1 109.9,4.9 162,13.1" /><path
         id="path182"
         style="fill:#11a5c0;fill-opacity:1;fill-rule:nonzero;stroke:none"
         d="m 11679.3,2644 c 183,-53 376.2,-30.8 562.6,-7.2 164.3,20.9 332.2,71.7 453,191.2 71.6,70.9 117.3,156.5 149.2,248.5 l 74.6,-279.2 -282.7,-103.6 c -883.3,-316.8 -1276.2,56.5 -1276.2,56.5 -5.7,19 -8.4,35.9 -9.5,51.2 79.2,-92.7 213.9,-124.2 329,-157.4" /><path
         id="path184"
         style="fill:#367d93;fill-opacity:1;fill-rule:nonzero;stroke:none"
         d="m 12469.1,3202.4 c 2.5,-2.2 5.2,-3.7 7.7,-5.4 -44.6,-84.8 -127.9,-144.6 -207.7,-195.1 -87.8,-55.4 -188.7,-95.3 -275.4,-127.1 -85,-31.2 -162.9,-76.9 -258.1,-61.4 -76.5,12.3 -121.6,59.3 -139.7,125.3 349.4,62.6 597.2,280.8 597.2,280.8 0,0 36.6,34.3 63.6,141.5 0,0 -3.7,30.2 52.1,24.4 l 172.3,-48.2 c 0,0 46.7,-12.5 16.7,-62.2 l -28.7,-72.6" /><path
         id="path186"
         style="fill:#84d7e3;fill-opacity:1;fill-rule:nonzero;stroke:none"
         d="M 12918.7,2797.3 12636,2693.7 c -883.3,-316.8 -1276.2,56.5 -1276.2,56.5 0,0 -3.5,-93.8 56.4,-138.5 0,0 515.9,-295 1258.3,-7.1 0,0 148.4,41.3 265.4,102.3 0,0 12.1,83.7 -21.2,90.4" /><path
         id="path188"
         style="fill:none;stroke:#ffffff;stroke-width:67.87419891;stroke-linecap:round;stroke-linejoin:round;stroke-miterlimit:10;stroke-dasharray:none;stroke-opacity:1"
         d="m 12087.2,3141.2 c 0,0 111.7,-2.6 173.3,-168.1" /><path
         id="path190"
         style="fill:none;stroke:#ffffff;stroke-width:67.87419891;stroke-linecap:round;stroke-linejoin:round;stroke-miterlimit:10;stroke-dasharray:none;stroke-opacity:1"
         d="m 11988,3090.9 c 0,0 98.4,-18.7 140.2,-164.3" /><path
         id="path192"
         style="fill:none;stroke:#ffffff;stroke-width:67.87419891;stroke-linecap:round;stroke-linejoin:round;stroke-miterlimit:10;stroke-dasharray:none;stroke-opacity:1"
         d="m 11903.1,3038.7 c 0,0 88.5,-24 130.2,-169.6" /><path
         id="path194"
         style="fill:none;stroke:#ffffff;stroke-width:67.87419891;stroke-linecap:round;stroke-linejoin:round;stroke-miterlimit:10;stroke-dasharray:none;stroke-opacity:1"
         d="m 11795.2,2989.7 c 0,0 91.7,-2.5 133.4,-148" /><path
         id="path196"
         style="fill:none;stroke:#ffffff;stroke-width:67.87419891;stroke-linecap:round;stroke-linejoin:round;stroke-miterlimit:10;stroke-dasharray:none;stroke-opacity:1"
         d="m 11667.7,2956.7 c 0,0 91.8,-2.6 133.4,-148.2" /><path
         id="path198"
         style="fill:#f69575;fill-opacity:1;fill-rule:nonzero;stroke:none"
         d="m 13920.9,3479.8 c -24.7,-82.1 -103.1,-322.4 -191.9,-396 -107.8,-89.1 -515.3,-215.9 -515.3,-215.9 l -224.9,-28.2 c 0,0 -157.9,-109 267.9,-234.4 425.8,-125.4 1183.3,216.1 1183.3,216.1 l -149.6,658.4 h -369.5" /><path
         id="path200"
         style="fill:#183651;fill-opacity:1;fill-rule:nonzero;stroke:none"
         d="m 14037,3202.4 c 59.2,-51.4 131.9,37.7 131.9,37.7 54.3,100.3 166,124.1 166,124.1 l 151.7,-566.9 -282.7,-103.6 c -883.3,-316.8 -1276.2,56.5 -1276.2,56.5 -40,134.4 50,171.8 50,171.8 444.3,-1.4 783.4,297.5 783.4,297.5 0,0 36.5,34.3 63.5,141.5 0,0 -3.7,30.2 52.1,24.4 l 172.3,-48.2 c 0,0 46.6,-12.5 16.6,-62.2 l -28.6,-72.6" /><path
         id="path202"
         style="fill:#93d222;fill-opacity:1;fill-rule:nonzero;stroke:none"
         d="m 14189.2,3124 c -68,-24.1 -171.7,-59.8 -243.4,-24.7 45.9,31.6 75.8,75.6 99.5,124.1 l -8.3,-21 c 59.2,-51.4 131.9,37.7 131.9,37.7 54.3,100.3 166,124.1 166,124.1 l 39.5,-147.2 c -54.7,-41.9 -123.7,-71.1 -185.2,-93" /><path
         id="path204"
         style="fill:#1577a6;fill-opacity:1;fill-rule:nonzero;stroke:none"
         d="m 13861.7,2830.9 c 1.7,84.2 -48.4,152.5 -103.4,211.1 -24,25.6 -49.1,49.9 -79,68.6 -11.3,7 -24.3,14.2 -36.9,22.3 41.3,26.7 73.4,50.4 93.4,66.1 11,-16.2 21.9,-32.4 33.7,-48 49.7,-66.7 118.2,-173.3 203.4,-198.4 157.6,-46.6 325.3,103.6 411.7,226.1 l 16.8,-62.9 c -1,-3.3 -2.2,-6.6 -3.2,-9.8 -71.5,-60.8 -145.5,-118.5 -223.5,-170.8 -61.1,-41 -127.8,-75.2 -163,-143.3 -16.2,-31.3 -36,-90.3 -42.8,-124.1 -53.1,-15.9 -103.4,-23.8 -159.1,-31 27.1,52.9 50.6,132.2 51.9,194.1" /><path
         id="path206"
         style="fill:#1577a6;fill-opacity:1;fill-rule:nonzero;stroke:none"
         d="m 13757.5,2732.1 c -10.8,-27 -22.6,-53.7 -30.7,-81.7 -103,-11 -207.3,-21.2 -310.1,-13.9 -20.4,15.6 -40.6,34.6 -50.1,55.3 132,0.1 262.1,8.3 390.9,40.3" /><path
         id="path208"
         style="fill:#1577a6;fill-opacity:1;fill-rule:nonzero;stroke:none"
         d="m 13767.1,2757.6 c -133.5,-35.5 -269.1,-43.6 -406.1,-43.6 -0.5,9 -1.4,20.5 6.7,27.2 27.4,22.6 112.7,24.5 156.5,33.1 86,16.8 170.9,46.4 245.9,92.3 9.1,-25.9 12.9,-52.9 5.9,-80.2 -2.5,-9.7 -5.6,-19.3 -8.9,-28.8" /><path
         id="path210"
         style="fill:#b0e5ef;fill-opacity:1;fill-rule:nonzero;stroke:none"
         d="m 13142.2,2935.2 c 10.9,-36.2 41.1,-90 79.4,-113.1 -41.5,-13.3 -105,5 -139.5,13.7 -53.7,13.4 -79,45.9 -101.9,86.3 55.8,-0.1 109.9,4.9 162,13.1" /><path
         id="path212"
         style="fill:#11a5c0;fill-opacity:1;fill-rule:nonzero;stroke:none"
         d="m 13247.2,2644 c 183,-53 376.3,-30.8 562.6,-7.2 164.3,20.9 332.3,71.7 453,191.2 71.6,70.9 117.3,156.5 149.2,248.5 l 74.6,-279.2 -282.7,-103.6 c -883.3,-316.8 -1276.2,56.5 -1276.2,56.5 -5.7,19 -8.4,35.9 -9.5,51.2 79.3,-92.7 213.9,-124.2 329,-157.4" /><path
         id="path214"
         style="fill:#367d93;fill-opacity:1;fill-rule:nonzero;stroke:none"
         d="m 14037,3202.4 c 2.5,-2.2 5.1,-3.7 7.7,-5.4 -44.6,-84.8 -127.9,-144.6 -207.8,-195.1 -87.7,-55.4 -188.6,-95.3 -275.3,-127.1 -85,-31.2 -162.8,-76.9 -258.1,-61.4 -76.5,12.3 -121.6,59.3 -139.7,125.3 349.4,62.6 597.3,280.8 597.3,280.8 0,0 36.5,34.3 63.5,141.5 0,0 -3.7,30.2 52.1,24.4 l 172.3,-48.2 c 0,0 46.6,-12.5 16.6,-62.2 l -28.6,-72.6" /><path
         id="path216"
         style="fill:#84d7e3;fill-opacity:1;fill-rule:nonzero;stroke:none"
         d="m 14486.6,2797.3 -282.7,-103.6 c -883.3,-316.8 -1276.2,56.5 -1276.2,56.5 0,0 -3.5,-93.8 56.4,-138.5 0,0 515.9,-295 1258.3,-7.1 0,0 148.4,41.3 265.4,102.3 0,0 12.1,83.7 -21.2,90.4" /><path
         id="path218"
         style="fill:none;stroke:#ffffff;stroke-width:67.87419891;stroke-linecap:round;stroke-linejoin:round;stroke-miterlimit:10;stroke-dasharray:none;stroke-opacity:1"
         d="m 13655.1,3141.2 c 0,0 111.7,-2.6 173.2,-168.1" /><path
         id="path220"
         style="fill:none;stroke:#ffffff;stroke-width:67.87419891;stroke-linecap:round;stroke-linejoin:round;stroke-miterlimit:10;stroke-dasharray:none;stroke-opacity:1"
         d="m 13555.8,3090.9 c 0,0 98.6,-18.7 140.3,-164.3" /><path
         id="path222"
         style="fill:none;stroke:#ffffff;stroke-width:67.87419891;stroke-linecap:round;stroke-linejoin:round;stroke-miterlimit:10;stroke-dasharray:none;stroke-opacity:1"
         d="m 13471,3038.7 c 0,0 88.5,-24 130.2,-169.6" /><path
         id="path224"
         style="fill:none;stroke:#ffffff;stroke-width:67.87419891;stroke-linecap:round;stroke-linejoin:round;stroke-miterlimit:10;stroke-dasharray:none;stroke-opacity:1"
         d="m 13363.1,2989.7 c 0,0 91.7,-2.5 133.4,-148" /><path
         id="path226"
         style="fill:none;stroke:#ffffff;stroke-width:67.87419891;stroke-linecap:round;stroke-linejoin:round;stroke-miterlimit:10;stroke-dasharray:none;stroke-opacity:1"
         d="m 13235.7,2956.7 c 0,0 91.7,-2.6 133.3,-148.2" /><path
         id="path228"
         style="fill:#e68368;fill-opacity:1;fill-rule:nonzero;stroke:none"
         d="m 12995.9,15132.3 c 14.9,316.9 -229.8,585.8 -546.7,600.7 -316.9,14.9 -585.8,-229.9 -600.7,-546.7 -14.9,-316.8 229.9,-585.6 546.7,-600.6 316.8,-14.9 585.8,229.9 600.7,546.6" /><path
         id="path230"
         style="fill:#e68368;fill-opacity:1;fill-rule:nonzero;stroke:none"
         d="m 12765.7,15214 233.3,-10.4 c 0,0 -314.9,-1936.5 -643.4,-2287.6 -328.3,-351 -339.8,94.3 -400.9,164.3 -60.9,70 -102.6,2191.9 -102.6,2191.9 l 913.6,-58.2" /><path
         id="path232"
         style="fill:#e68368;fill-opacity:1;fill-rule:nonzero;stroke:none"
         d="m 11968.4,13335.1 c -573.6,-1018.3 -810.2,-1096.5 -1163.3,-1670.9 0,0 30.1,-156.5 210.8,-126.1 180.6,30.3 1235.5,913.1 1452.1,1555.8 56.1,166.6 -499.6,241.2 -499.6,241.2" /><path
         id="path234"
         style="fill:#e68368;fill-opacity:1;fill-rule:nonzero;stroke:none"
         d="m 10818.5,11707.5 -287.4,-101.8 -280.9,-163.6 c 55.6,-94 206,0.7 206,0.7 -155.2,-188.2 -349,-327.1 -349,-327.1 -61.6,-64.6 13.4,-93.3 13.4,-93.3 120.3,44.3 340.2,239.6 340.2,239.6 -108.2,-127.1 -317.7,-312.2 -317.7,-312.2 -41.1,-62.1 34.8,-75 34.8,-75 176,15.7 363,290.6 363,290.6 -67.4,-106 -266.2,-294.8 -266.2,-294.8 -5.8,-53.3 23.8,-48.3 23.8,-48.3 141.5,-8.9 320.7,256.1 320.7,256.1 l -69.7,-97.5 c -107.2,-125 -0.6,-130.3 -0.6,-130.3 l 66.3,56.6 c 199.2,176.2 265.6,388.4 265.6,388.4 l 122.4,258.6 -184.7,153.3" /><g
         transform="scale(1.03986)"
         id="g236"><path
           id="path238"
           style="fill:#ee8b6a;fill-opacity:1;fill-rule:nonzero;stroke:none"
           d="m 13166.2,15084.5 h -842.7 c 38.3,122.7 117.7,440.3 -5.2,656.4 l 851.5,559.1 c 0,0 -151.5,-938.1 -3.6,-1215.5" /></g><g
         transform="scale(1.03986)"
         id="g240"><path
           id="path242"
           style="fill:#e27462;fill-opacity:1;fill-rule:nonzero;stroke:none"
           d="m 12383.9,15453 c 2.5,93.9 -13,195.5 -65.6,287.9 l 851.5,559.1 c 0,0 -61.7,-382.3 -68.1,-731.1 -307.3,-97.7 -433.9,-135.5 -717.8,-115.9" /></g><path
         id="path244"
         style="fill:#f69575;fill-opacity:1;fill-rule:nonzero;stroke:none"
         d="m 12162.5,11704.6 c 0,0 -126.3,-746.1 -168,-1214.1 -73.8,-828.2 89.4,-2922.6 89.4,-2922.6 0,0 720.3,-293.7 796,-111.1 508.3,1224.8 770.5,3544.6 770.5,3544.6 l -1487.9,703.2" /><path
         id="path246"
         style="fill:#e68368;fill-opacity:1;fill-rule:nonzero;stroke:none"
         d="m 13660.3,10903.3 c 0,0 -64.7,-2160.7 -780.4,-3446.5 0,0 -146.1,-338.5 -796,111.1 0,0 -433.4,3130.6 56.2,4260.2 0,0 1669.6,234.7 1520.2,-924.8" /><path
         id="path248"
         style="fill:#e68368;fill-opacity:1;fill-rule:nonzero;stroke:none"
         d="m 12879.9,7456.8 -796,111.1 c 0,0 219.6,-3958 252.5,-4127.8 0,0 398.6,-53.7 397.8,42.9 -1.9,232.9 349.5,1856.3 380.7,2220.8 50.2,585.4 50.2,957.2 -235,1753" /><path
         id="path250"
         style="fill:#f69575;fill-opacity:1;fill-rule:nonzero;stroke:none"
         d="m 12076.9,15054 c -34.4,-270.1 -24.7,-308.5 31.9,-684.5 83.6,-555.6 259.7,-1126 381.1,-1299.9 265.8,-380.8 1418.1,27.2 1418.1,27.2 l 523.4,1858.8 c 0,0 224.7,594.3 -265,789.2 h -1679.3 c 0,0 -347.2,-228.6 -410.2,-690.8" /><path
         id="path252"
         style="fill:#f69575;fill-opacity:1;fill-rule:nonzero;stroke:none"
         d="m 12823.4,13196.5 c -65.1,11.8 -333.5,-126.9 -333.5,-126.9 0,0 -335.4,-1077.6 -349.8,-1241.5 -14.5,-163.6 1112.5,-1012 2371.4,-529 0,0 -567.8,1423.9 -603.5,1797.7 -35.6,373.8 -1084.6,99.7 -1084.6,99.7" /><path
         id="path254"
         style="fill:#f69575;fill-opacity:1;fill-rule:nonzero;stroke:none"
         d="m 13752.6,10988.7 837.9,-241.2 c 0,0 -147.6,-2880.5 -263,-3689.6 0,0 -509.4,-141.8 -667.1,-37 -472.3,1107.7 -745.7,3512.8 -745.7,3512.8 l 837.9,455" /><path
         id="path256"
         style="fill:#131418;fill-opacity:1;fill-rule:nonzero;stroke:none"
         d="m 13077.5,10167 c 175.5,6.1 356.4,26.1 533.1,65.1 41.6,403.2 49.7,671.2 49.7,671.2 149.4,1159.5 -1520.2,924.8 -1520.2,924.8 -147.8,-340.9 -212.2,-868.9 -230.2,-1440 356.5,-176.2 777.7,-234.7 1167.6,-221.1" /><path
         id="path258"
         style="fill:#2251aa;fill-opacity:1;fill-rule:nonzero;stroke:none"
         d="m 12307.5,15336.2 c 0,0 -406,-445.1 -406,-725.6 0,-166.9 243.1,-527.4 471.3,-591.8 124.7,-35.1 127.7,1285.2 -65.3,1317.4" /><path
         id="path260"
         style="fill:#f69575;fill-opacity:1;fill-rule:nonzero;stroke:none"
         d="m 14362.9,7358.5 -744,-220.3 c 0,0 269.1,-3488.8 302,-3658.4 0,0 385.5,-134.1 384.6,-37.5 -1.8,233 271.8,1689.4 298.1,2054.3 45.1,627.3 215.6,1048 -240.7,1861.9" /><path
         id="path262"
         style="fill:#2251aa;fill-opacity:1;fill-rule:nonzero;stroke:none"
         d="m 13765.1,14900.8 c -230.5,233.6 -131,646.6 90.6,844 h -178.5 c 0,0 -210,-677.6 -821.3,-656.2 0,0 -536.4,74 -185.4,656.2 l -183.4,-3 c 0,0 -410.8,-782.7 -378.3,-1372.3 5.9,-107.6 65.3,-372.9 92.5,-477.2 0,0 460.1,-203.3 1915.7,-16.2 l 302.3,1038.1 c -190.6,-149.1 -470.1,-200 -654.2,-13.4" /><path
         id="path264"
         style="fill:#183a7a;fill-opacity:1;fill-rule:nonzero;stroke:none"
         d="m 14174.5,14073.6 -57.5,-197.5 c -1455.6,-187.1 -1915.7,16.2 -1915.7,16.2 -10.8,41.5 -27.7,108.7 -44.1,181.3 0,0 653.2,-158 2017.3,0" /><g
         transform="scale(1.11612)"
         id="g266"><path
           id="path268"
           style="fill:#f7906e;fill-opacity:1;fill-rule:nonzero;stroke:none"
           d="m 11146.2,15607.6 c -1.1,-17.1 -1.9,-34.3 -2.4,-51.9 -2.5,-79.9 0.9,-162.9 8.5,-248.2 2.8,-32.2 6.3,-64.5 10.4,-97.2 1.9,-15.6 4.1,-31.4 6,-47.2 37.6,-277.5 108.9,-480.3 286.2,-612.9 83.7,-62.5 466.4,104.9 599.2,244.9 205.4,216.9 289.5,534.3 279.8,1025.9 -2.8,131.4 -78.4,237.8 -167.3,315 -102.6,89.3 -153.1,124.8 -291.6,139.1 -241.6,24.9 -493.8,-23 -628.3,-277.4 -61.1,-115.6 -91.2,-247.1 -100.5,-390.1" /></g><g
         transform="scale(1.14103)"
         id="g270"><path
           id="path272"
           style="fill:#c07431;fill-opacity:1;fill-rule:nonzero;stroke:none"
           d="m 11803.6,14985.3 c -5.1,-91.5 127.1,-46.5 132.7,-116.7 0,0 10.1,-63.5 7.4,-304 l 9.1,-134.7 c 0,0 447.2,257.4 444.5,996.9 0,0 2.7,434.3 -500.4,574.3 0,0 -1106.5,298.9 -994.8,-803.8 0,0 -7.9,408.7 328.3,442.8 0,0 615.8,115.3 573.2,-654.8" /></g><g
         transform="scale(1.05281)"
         id="g274"><path
           id="path276"
           style="fill:#f7906e;fill-opacity:1;fill-rule:nonzero;stroke:none"
           d="m 12900.2,15958.5 c 20.5,-15.7 46.6,-24.7 79.3,-24.1 88.4,1.2 161.8,84 163.8,184.5 2,100.6 -67.7,181.1 -156.1,179.8 -41.7,-0.6 -80.3,-19.6 -109.4,-50 -42.4,-44.4 -43.8,-126.3 -33.8,-182.7 8,-45.2 25.7,-83.9 56.2,-107.5" /></g><g
         transform="scale(1.05009)"
         id="g278"><path
           id="path280"
           style="fill:#eb7963;fill-opacity:1;fill-rule:nonzero;stroke:none"
           d="m 12985.1,16247.1 c 5.2,52.9 112.4,2.4 96.2,-27.5 -9.4,-17.2 -28.2,-29.7 -43,-41.8 -20.1,-16.5 -30.1,-31.5 -32.9,-57.8 -0.3,-3.1 -1,-12.2 2.2,-14.5 13.9,-9.5 59.3,42.2 69.2,53.1 19.6,21.4 22.3,58.1 12.9,84.6 -10,28.2 -28.6,41.6 -58.8,39.7 -24.1,-1.4 -48.6,-3.1 -47.1,-33 0.1,-0.6 1,-5.5 1.3,-2.8 v 0" /></g><g
         transform="scale(1.04386)"
         id="g282"><path
           id="path284"
           style="fill:#eb7963;fill-opacity:1;fill-rule:nonzero;stroke:none"
           d="m 13097.1,16288.8 c -11.2,11.2 -21.8,1.9 -33.2,-6.4 -10.8,-7.8 -16.7,-18.8 -19.5,-31.4 -6.1,-27.7 -2.4,-64.7 13.4,-88.9 12.9,-19.4 34.4,-31.4 57.9,-30.7 32.5,0.9 42.1,29.6 43.3,57 0.4,7.3 1,24.7 -6.2,29.3 -7.8,4.9 -13.3,-7.2 -18.4,-12.3 -7.3,-6.9 -18,-9.6 -27.6,-10.4 -18.4,-1.6 -36.5,7.8 -48.3,21.5 -1.9,2.4 -3.7,5.4 -4.9,8.3 0.1,-17.9 1.1,-21.8 3,-12.1 1.3,4.7 3.4,8.9 6,12.8 7.6,12.4 20.2,20.9 28.6,32.8 4.1,5.5 11.5,24.7 5.9,30.5 v 0" /></g><path
         id="path286"
         style="fill:#1f232b;fill-opacity:1;fill-rule:nonzero;stroke:none"
         d="m 12489.9,13069.6 c 0,0 -316.2,-1080.4 -349.8,-1241.5 -196.1,-939.7 1181.9,-1278.1 2440.7,-795.1 0,0 24.7,1012.7 -672.8,2063.8 0,0 -222,-95.1 -1418.1,-27.2" /><path
         id="path288"
         style="fill:#1f232b;fill-opacity:1;fill-rule:nonzero;stroke:none"
         d="m 13460.4,9886.6 c 243.1,-11.1 512.8,-21.2 744.8,61.9 137.1,49 250.3,124.3 353.5,211.3 19.8,353.4 31.8,587.7 31.8,587.7 l -837.9,241.2 -837.9,-455 c 0,0 24.9,-219.1 72.6,-555.2 149.4,-59.7 312.7,-84.6 473.1,-91.9" /><path
         id="path290"
         style="fill:#1f232b;fill-opacity:1;fill-rule:nonzero;stroke:none"
         d="m 14231.7,11590.4 c 0,0 436.9,-125.9 346.6,-935.5 -88.4,-790.7 -1542.5,-865.8 -1678.3,-55.2 -146.1,872.4 561.7,1334.6 1331.7,990.7" /><g
         transform="scale(1.0604)"
         id="g292"><path
           id="path294"
           style="fill:#351f17;fill-opacity:1;fill-rule:nonzero;stroke:none"
           d="m 12329.4,16242.9 c 0,-31.5 17.4,-57.1 38.8,-57.1 21.4,0 38.7,25.6 38.7,57.1 0,31.5 -17.3,57.1 -38.7,57.1 -21.4,0 -38.8,-25.6 -38.8,-57.1" /></g><g
         transform="scale(1.0604)"
         id="g296"><path
           id="path298"
           style="fill:#351f17;fill-opacity:1;fill-rule:nonzero;stroke:none"
           d="m 11890.5,16242.9 c 0,-31.5 17.4,-57.1 38.8,-57.1 21.4,0 38.7,25.6 38.7,57.1 0,31.5 -17.3,57.1 -38.7,57.1 -21.4,0 -38.8,-25.6 -38.8,-57.1" /></g><g
         transform="scale(1.07166)"
         id="g300"><path
           id="path302"
           style="fill:#c07431;fill-opacity:1;fill-rule:nonzero;stroke:none"
           d="m 12366.6,16151.3 c -75.2,58.5 -240,17.3 -240,17.3 0,0 -16.8,-0.5 -16.1,31.4 0,0 -6.7,29.2 18.5,35.9 0,0 237.6,64.1 237.6,-84.6" /></g><g
         transform="scale(1.07166)"
         id="g304"><path
           id="path306"
           style="fill:#c07431;fill-opacity:1;fill-rule:nonzero;stroke:none"
           d="m 11675.4,16151.3 c 75.2,58.5 240,17.3 240,17.3 0,0 16.9,-0.5 16,31.4 0,0 6.9,29.2 -18.3,35.9 0,0 -237.7,64.1 -237.7,-84.6" /></g><g
         transform="scale(1.0468)"
         id="g308"><path
           id="path310"
           style="fill:#eb7963;fill-opacity:1;fill-rule:nonzero;stroke:none"
           d="m 12324.6,16152.3 c -164.7,12 -173.8,55.1 -173.8,55.1 l 42.6,92.6 c 0,0 24,-92.6 131.2,-147.7" /></g><g
         transform="scale(1.03121)"
         id="g312"><path
           id="path314"
           style="fill:#9d3339;fill-opacity:1;fill-rule:nonzero;stroke:none"
           d="m 12299.4,16300 h 316 c 16.6,-0.2 24.6,-12.7 17.7,-28 0,0 -71.7,-156.8 -174.1,-156.5 -102.5,0.4 -173.1,157.8 -173.1,157.8 -6.1,13.7 0.3,24.5 13.5,26.7" /></g><g
         transform="scale(1.02832)"
         id="g316"><path
           id="path318"
           style="fill:#d54651;fill-opacity:1;fill-rule:nonzero;stroke:none"
           d="m 12613.1,16231.2 c -30.2,-36.4 -71.2,-70.4 -119,-70.3 -48.1,0.2 -89.1,34.8 -119.1,71.7 61.6,67.4 173,65.3 238.1,-1.4" /></g><g
         transform="scale(1.03121)"
         id="g320"><path
           id="path322"
           style="fill:#ffffff;fill-opacity:1;fill-rule:nonzero;stroke:none"
           d="m 12296.3,16298.8 c 1,0.3 1.9,1 3.1,1.2 h 316 c 3.3,0 5.9,-0.9 8.5,-1.8 -9.4,-18.1 -18.6,-36.2 -28.2,-54.1 -48.5,-9.2 -159.3,-23.8 -274.1,0.4 -7.4,18.6 -15.9,36.7 -25.3,54.3" /></g><path
         id="path324"
         style="fill:#f69575;fill-opacity:1;fill-rule:nonzero;stroke:none"
         d="m 13903.7,14848.6 c 239.1,-117.7 528.6,-19.4 646.5,219.7 117.8,239.3 19.5,528.7 -219.7,646.6 -239.2,117.9 -528.7,19.6 -646.6,-219.6 -117.9,-239.2 -19.5,-528.7 219.8,-646.7" /><path
         id="path326"
         style="fill:#f69575;fill-opacity:1;fill-rule:nonzero;stroke:none"
         d="m 14393.7,13246.8 c -91.9,-1165 -290.9,-1361.5 -369.5,-2031.3 0,0 93.2,-129.2 244.3,-25.6 151.1,103.4 758.5,1315.2 618.2,2026.2 -34,172.5 -493,30.7 -493,30.7" /><path
         id="path328"
         style="fill:#f69575;fill-opacity:1;fill-rule:nonzero;stroke:none"
         d="m 14047.7,11271.2 -265.6,-132.9 -265.8,-163.1 c 47,-105.7 238.9,-11.7 238.9,-11.7 -90.5,-226.4 -204.6,-472.7 -204.6,-472.7 -39,-80.3 41.2,-84.9 41.2,-84.9 101,78.9 251,332 251,332 -64.4,-154.1 -207.5,-394.2 -207.5,-394.2 -20,-71.7 56,-60.9 56,-60.9 162.9,68.6 257.2,387.4 257.2,387.4 -31.9,-121.4 -163.7,-361.8 -163.7,-361.8 10.8,-52.6 37.5,-38.7 37.5,-38.7 137.4,34.5 227.2,341.6 227.2,341.6 l -36.7,-114.1 c -63.9,-151.8 39.3,-124.4 39.3,-124.4 l 45.9,74.1 c 136,228.6 134.5,450.9 134.5,450.9 l 37.9,283.6 -222.7,89.8" /><path
         id="path330"
         style="fill:#f69575;fill-opacity:1;fill-rule:nonzero;stroke:none"
         d="m 13812.1,15115.5 -108.7,-96.6 c 0,0 526.8,-1711.2 848.7,-1986 322,-274.8 308.7,42.3 334.6,183.2 14.9,80.4 -288.2,2120.1 -288.2,2120.1 l -786.4,-220.7" /></g></g></svg>