<svg enable-background="new 0 0 140 140" 
height="100" 
viewBox="0 0 140 140" 
width="100" 
xmlns="http://www.w3.org/2000/svg">
<path d="m106.2584229 98.0748138c-.9704742-.2652054-1.6756973-.7941437-2.2046585-.9704666-.528923-.1763077-4.7604294-.4414978-4.7604294-.4414978s-.2812195-4.0697708-.2812195-5.6186829c0-1.5489502 1.4075775-5.419075 1.3361816-7.3905716-.0632553-1.7827072-.1841507-8.0007477.5326385-11.1824188l-6.3979034 2.0192566c-.0825348 3.0807648-.2173615 9.7251968.0484161 12.9152679.3526077 4.2315063.9704361 7.3177185 1.5867996 8.7282104.6178207 1.4104919.4415131 2.5572662 1.7631378 3.0861893 1.3230515.5289536 3.2624969.2652054 5.3797073.6178207 2.117218.3526306 1.2341843 0 2.6446762 0 1.4105301 0 1.3230896-.7941284 1.3230896-.7941284s.0000001-.7052458-.9704359-.9689788z" fill="#f7be56"/><path d="m32.7736473 90.6787033-2.0362911 3.1675568-3.4440975-4.7513428 3.0314254-1.4051895z" fill="#f7be56"/><path d="m31.6084423 99.5186005c-1.0406475-1.0945282-.8408642-4.1586151-.1951046-5.6863022.1690197-.3999023.0289688-.8668747-.3548355-1.0697021-.8543777-.451622-2.1740532-1.4855118-3.0058651-3.7638702-.1699448-.4654694-.7167664-.6701508-1.1614246-.4514389l-3.5898762 1.765976s-1.144022.5467758.0205402 3.2959747c1.1645489 2.7491531 3.0031261 3.2074127 4.1334724 5.3030701 1.1303844 2.0957031 4.4679871 4.6979065 5.8358803 4.3491058 1.36792-.3488084-.4159317-2.4103166-1.6827869-3.7428132z" fill="#ebf0f3"/><path d="m33.289547 103.2606506c-1.3676662.3487396-4.895071-2.0601654-6.0247612-4.1568604-1.1296864-2.0965881-2.9697456-2.5555496-4.1327572-5.3053665-1.1671848-2.7487488.1683807-3.4845428.1683807-3.4845428l.3310947-.1643906c-.3143101.4043198-.6866341 1.3475189.1080437 3.2275848 1.1630363 2.7498093 3.0030842 3.208725 4.1317081 5.3012466 1.0949268 2.0299911 4.4361515 4.3531265 5.8902493 4.1866531-.0502548.1860124-.1967735.3255007-.4719581.3956758z" fill="#4d5c7d"/><path d="m46.2502861 46.665638-1.6879082-3.3661423 5.8431931-.5423927v3.5615272z" fill="#f7be56"/><path d="m39.2378082 41.1586723c1.4720383-.3376999 4.0067024 1.3955116 4.9921417 2.7295837.2579651.3492012.7311249.4666367 1.1012154.2397499.8239441-.5050201 2.3859863-1.1137009 4.7702293-.6684875.4871063.0909538.9418564-.2752571.9802437-.7693062l.3097038-3.9887276s.0454788-1.2817612-2.9134521-1.680584c-2.9588776-.3988075-4.2900314.9496765-6.6691895.8544273-2.3792191-.0952377-6.2519417 1.4694061-6.6488304 2.824131-.3968963 1.3547479 2.2858735.8702928 4.0779381.4592134z" fill="#ebf0f3"/><path d="m35.1613846 40.6983986c.3968239-1.354496 4.2669373-3.162159 6.6466522-3.0658188 2.3796196.0962868 3.7121353-1.253109 6.6708031-.8526421 2.959877.3963356 2.9124451 1.920433 2.9124451 1.920433l-.0272675.3686523c-.1877327-.4764671-.8095818-1.2774353-2.8321953-1.551651-2.9586754-.400444-4.2911377.948967-6.6667213.8538361-2.3046074-.0922623-6.0060501 1.5989113-6.6037483 2.9348984-.1344453-.1380233-.1798096-.3351707-.099968-.6077079z" fill="#4d5c7d"/><path d="m117.0199585 64.044426c-.0978622-.3638573-.2668762-.6752434-.3252182-1.0527229-.0039825-.0257721-.0039139-.0500526-.0019226-.0735321h-13.3673859c.0424423.1574173-.042366.3603325-.2551346.3702049-.3840637.0178223-.7299194-.0772476-1.0591278-.2264137-.5706863.0800629-1.1049042.1291351-1.5407639.1581993-.6615372.043705-1.0972214.043705-1.0972214.043705-11.110611-.7941475-13.9315948 1.4993706-19.3987503 2.0283318-.3919907.0378876-.7373123.0684814-1.0447845.0917816-1.8998489.1464615-2.3242874.0252533-2.8141479-.309906v11.3843384c.7261429.0247955 1.4636002.0284271 2.1890335.0128784 2.0880814-.0451813 4.0712509-.2433472 5.3739166-.5114517 2.9973221-.6163635 9.5223541 0 9.5223541 0s-.3526535 10.3164825 0 14.5494308c.3526154 4.2315063.9704361 7.3177185 1.5867996 8.7282104.6178207 1.4104919.4415131 2.5572662 1.7631378 3.0861893 1.3230515.5289536 3.2624969.2652054 5.3797073.6178207 2.117218.3526306 1.2341843 0 2.6446762 0 1.4105301 0 1.3230896-.7941284 1.3230896-.7941284s0-.705246-.9704361-.9689789c-.9704742-.2652054-1.6756973-.7941437-2.2046585-.9704666-.5289154-.1763077-4.7604294-.4414978-4.7604294-.4414978s-.2812119-4.0697708-.2812119-5.6186829c0-1.5489502 1.4075699-5.419075 1.336174-7.3905716-.0699387-1.971489-.1398773-6.8980484.8451385-10.135788.9850235-3.2377319 1.2108841-5.4045029 1.2108841-5.4045029-.018959-.3424225.8538589-1.4250793 1.7092133-1.6713257.8538589-.2462463 2.6009521.2462463 2.6781845 1.1394882.0757751.8932037-.534111 1.1568069.251297 2.0076447.3638535.3941803 1.3623581.117836 1.4389877-.2037354.0277863-.1165466.3030624-.4181824.5886841-.1515274.2841339.2651825.7401962-.0378876.7401962-.0378876.3409882.1325989.5129166-.1515503.6455002-.4181976.1326218-.2652054.6644592-.2652054.6644592-.2652054s-.0739212.5168381.2803268.7299118c.2589874.1557846.519249.0956955.7147293-.0033035.1802521-.0912857.321167-.2427292.4233017-.4170456.4796143-.8186722.8775482-.4011688 2.4488754-.8151855 1.3026581-.3424225 2.1783981-1.6451035 2.503334-2.2075348.093277-.1603012.1413345-.2608337.1413345-.2608337.0528641-.082428.1027451-.1644058.1510544-.2461548-.1993637-.360321-.0478821-.9460907.0854492-1.361702.1553497-.4841309.3437576-.9324799.4200592-1.4370651.0789418-.521698.2011799-1.0326538.061295-1.5527877z" fill="#fcd462"/><g fill="#4d5c7d"><path d="m116.3021011 68.6421356s-.0480576.1005325-.1413345.2608337c-.4283905-.1413574-1.3245087-.3934402-3.1983948-.8174667-3.4563065-.7824783-3.000206-1.9569168-3.0643463-2.347435-.0655594-.3919754-2.9360962-.5216446-2.9360962-.5216446h-.0000076c-.8382645 1.177124-2.4114685 1.5738373-3.7020721.9237289-.2034149-.1024628-.3702087-.1965637-.4711304-.2723999-.5216599-.3904953-1.1744537-.651329-1.3697205-1.1729965-.1282425-.3409576-.5362091-.9063263-.9485931-1.4745941.7649918-.0510139 1.830162-.1602974 2.8705368-.3978081 1.9394531-.4400406-.9704361-2.3794861 4.7604675-4.1440887 0 0 .9704361-3.7914352 5.0270996-3.1736145 4.0551682.6178246 1.7631073 4.8493156 1.7631073 4.8493156s4.407814 3.6151467 1.4104843 8.2881699z"/><path d="m101.0972519 69.5215378s.741394-4.9038696-3.1686554-5.6583138c-3.9100494-.7544403-7.1671982-.2263336-7.3180923.7544441-.1508865.9807739-1.056221 6.3373032 4.3757782 7.0163116-1.2173538 1.2047882-1.8987122 2.6138687-1.7854767 4.3258591l-5.3061447-.2716904-.3773727-12.1826439c-.0573807-.3764648 5.2497177-.6359291 10.5621948-.6985016.5334396-.0062789 3.8578872.9982377 3.0177688 6.7145349z"/><path d="m72.2166824 63.2638664c-5.6434631-1.6757011-8.2007294.9704552-11.1980553 2.0283318-2.9987831 1.0578766-10.7579994.0874252-10.7579994.0874252 1.6834564-4.8185616.7785492-17.0662575.5093575-20.2287903-.0141602-.1667023-.1706161-.2831001-.3345413-.2496605l-4.7238617.9636765c-.1278191.0260735-.2206345.1363182-.2236938.2667351-.0544624 2.3274574-.3111687 10.8724403-1.2218742 13.6045609-1.0578766 3.1750908-2.2046547 8.994873-.6178207 12.255928 1.5867996 3.2624969 10.3164825 3.6938248 10.3164825 3.6938248l-5.1145363 4.154274c-10.4038925.4400406-11.0217133 3.4388199-14.6368599 5.5545807-2.3292732 1.3631897-4.1455612 1.7385941-5.1429634 1.8331451-.3252563.0308456-.4732819.4203491-.2491989.6580963l3.455986 3.6669388c.1299706.1379242.3499832.1345978.4742088-.0084991.7913704-.9117203 4.2177582-3.8326111 16.9803963-6.3259888 15.3421211-2.9973297 21.1618843-9.532547 21.1618843-9.532547 1.7951965.6425934 4.6904984.8436661 7.4109421.7853928l.6251144-11.0873108c-3.988144.3074721-1.4745942-.5638887-6.712967-2.1201135z"/></g><path d="m53.9646759 75.6858978 5.514843-4.9696502-6.5522766 4.8874206z" fill="#474c5b"/></svg>